<?xml version="1.0" encoding="UTF-8"?>
<svg id="Layer_2" data-name="Layer 2" xmlns="http://www.w3.org/2000/svg" xmlns:xlink="http://www.w3.org/1999/xlink" viewBox="0 0 887.8 321.71">
  <defs>
    <style>
      .cls-1, .cls-2, .cls-3, .cls-4, .cls-5, .cls-6, .cls-7, .cls-8, .cls-9, .cls-10, .cls-11 {
        stroke-width: 0px;
      }

      .cls-1, .cls-2, .cls-3, .cls-5, .cls-12, .cls-8, .cls-10, .cls-11 {
        fill-rule: evenodd;
      }

      .cls-1, .cls-4, .cls-13 {
        fill: #b2925f;
      }

      .cls-2 {
        fill: #3b2314;
      }

      .cls-5 {
        fill: #e0e0f0;
      }

      .cls-6 {
        fill: url(#Super_Soft_Black_Vignette);
      }

      .cls-7, .cls-8 {
        fill: #fff;
      }

      .cls-12 {
        fill: none;
        stroke: #231f20;
        stroke-linecap: round;
        stroke-miterlimit: 10;
        stroke-width: 5px;
      }

      .cls-9, .cls-10 {
        fill: #231f20;
      }

      .cls-13 {
        font-family: Kanit-SemiBold, Kanit;
        font-size: 2.26px;
        font-weight: 600;
      }

      .cls-11 {
        fill: #9596ca;
      }
    </style>
    <radialGradient id="Super_Soft_Black_Vignette" data-name="Super Soft Black Vignette" cx="427.04" cy="139.4" fx="427.04" fy="139.4" r="7.38" gradientTransform="translate(122.42 233.93) rotate(5.93) scale(1 -1)" gradientUnits="userSpaceOnUse">
      <stop offset=".57" stop-color="#130c0e"/>
      <stop offset=".8" stop-color="#130c0e"/>
      <stop offset="1" stop-color="#130c0e"/>
    </radialGradient>
  </defs>
  <g id="Layer_1-2" data-name="Layer 1">
    <g>
      <path class="cls-4" d="m0,240.26v-100.6c0-2.46,2-4.46,4.46-4.46h60.5c11.22,0,19.92,2.67,26.11,7.99,6.18,5.33,9.27,12.98,9.27,22.96,0,5.44-.94,10.09-2.81,13.95-1,2.05-2.16,3.88-3.49,5.48-1.64,1.97-1.27,4.97.83,6.44s3.97,3.23,5.47,5.17c2.49,3.23,3.74,8.02,3.74,14.37,0,10.32-3.38,18.43-10.12,24.32-6.75,5.9-16.19,8.84-28.32,8.84H4.46c-2.46,0-4.46-2-4.46-4.46Zm38.61-67.52c0,2.46,2,4.46,4.46,4.46h10.84c5.44,0,8.16-2.44,8.16-7.31,0-4.53-2.72-6.8-8.16-6.8h-10.84c-2.46,0-4.46,2-4.46,4.46v5.19Zm0,39.63c0,2.46,2,4.46,4.46,4.46h10.84c5.44,0,8.16-2.44,8.16-7.31,0-4.53-2.72-6.8-8.16-6.8h-10.84c-2.46,0-4.46,2-4.46,4.46v5.19Z"/>
      <path class="cls-4" d="m169.94,246.43c-12.36,0-22.9-1.84-31.63-5.53-8.73-3.68-15.42-9.66-20.07-17.94-4.65-8.27-6.97-19.27-6.97-32.99s2.32-24.86,6.97-33.08c4.65-8.22,11.34-14.17,20.07-17.86,8.73-3.68,19.27-5.53,31.63-5.53s22.9,1.84,31.63,5.53c8.73,3.69,15.42,9.64,20.07,17.86,4.65,8.22,6.97,19.25,6.97,33.08s-2.33,24.72-6.97,32.99c-4.65,8.28-11.34,14.26-20.07,17.94-8.73,3.69-19.28,5.53-31.63,5.53Zm0-34.86c6.01,0,10.29-1.62,12.84-4.85s3.83-8.81,3.83-16.75-1.28-13.52-3.83-16.75c-2.55-3.23-6.83-4.85-12.84-4.85s-10.29,1.62-12.84,4.85c-2.55,3.23-3.83,8.82-3.83,16.75s1.28,13.52,3.83,16.75c2.55,3.23,6.83,4.85,12.84,4.85Z"/>
      <path class="cls-4" d="m267.95,290.65v-71.01c0-2.46-2-4.46-4.46-4.46h-18.97c-2.46,0-4.46-2-4.46-4.46v-20.67c0-2.46,2-4.46,4.46-4.46h88.01c2.46,0,4.46,2,4.46,4.46v20.67c0,2.46-2,4.46-4.46,4.46h-18.97c-2.46,0-4.46,2-4.46,4.46v71.01c0,2.46-2,4.46-4.46,4.46h-32.23c-2.46,0-4.46-2-4.46-4.46Z"/>
      <path class="cls-7" d="m278.02,171.85l38.74-100.6c.66-1.72,2.32-2.86,4.16-2.86h36.56c1.85,0,3.5,1.14,4.16,2.86l38.74,100.6c1.13,2.92-1.03,6.07-4.16,6.07h-33.29c-1.85,0-3.51-1.14-4.17-2.87l-5.63-14.68c-.66-1.73-2.32-2.87-4.17-2.87h-19.54c-1.85,0-3.51,1.14-4.17,2.87l-5.63,14.68c-.66,1.73-2.32,2.87-4.17,2.87h-33.29c-3.13,0-5.29-3.14-4.16-6.07Zm59.35-42.4h3.5c3.15,0,5.31-3.18,4.15-6.11l-1.75-4.4c-1.49-3.75-6.8-3.75-8.29,0l-1.75,4.4c-1.17,2.93.99,6.11,4.15,6.11Z"/>
      <path class="cls-7" d="m411.31,234.18v-100.6c0-2.46,2-4.46,4.46-4.46h32.23c2.46,0,4.46,2,4.46,4.46v100.6c0,2.46-2,4.46-4.46,4.46h-32.23c-2.46,0-4.46-2-4.46-4.46Z"/>
      <path class="cls-7" d="m464.38,317.25v-100.6c0-2.46,2-4.46,4.46-4.46h31.88c1.7,0,3.25.97,4,2.49l17.03,34.59c1.64,3.33,6.38,3.32,8.01-.01l16.89-34.56c.75-1.53,2.3-2.5,4.01-2.5h31.87c2.46,0,4.46,2,4.46,4.46v100.6c0,2.46-2,4.46-4.46,4.46h-32.23c-2.46,0-4.46-2-4.46-4.46v-14.77c0-4.73-6.38-6.21-8.47-1.97h0c-.75,1.53-2.3,2.5-4.01,2.5h-15.36c-1.7,0-3.25-.97-4.01-2.49h0c-2.08-4.24-8.47-2.76-8.47,1.97v14.77c0,2.46-2,4.46-4.46,4.46h-32.23c-2.46,0-4.46-2-4.46-4.46Z"/>
      <path class="cls-7" d="m598.9,234.18v-100.6c0-2.46,2-4.46,4.46-4.46h32.23c2.46,0,4.46,2,4.46,4.46v69.31c0,2.46,2,4.46,4.46,4.46h35.8c2.46,0,4.46,2,4.46,4.46v22.37c0,2.46-2,4.46-4.46,4.46h-76.96c-2.46,0-4.46-2-4.46-4.46Z"/>
    </g>
    <g>
      <path class="cls-1" d="m887.8,64.24v82.13c0,10.46-8.48,18.95-18.95,18.95h-51.43c-2.3,0-4.55.72-6.46,2.03l-10.93,7.62-6.41,4.48-14.52,10.12c-1.04.72-2.45.47-3.17-.57l-7.89-11.33-6.06-8.68c-1.58-2.3-4.21-3.66-7-3.66h-11.6c-10.46,0-18.95-8.48-18.95-18.95v-82.13c0-3.39.89-6.56,2.45-9.3,3.24-5.76,9.42-9.65,16.5-9.65h125.47c10.46,0,18.95,8.49,18.95,18.95Z"/>
      <path class="cls-8" d="m764.51,178.57c1.15,1.65.75,3.93-.91,5.08l-14.27,9.94-15.28,10.65c-1.09.76-2.58.5-3.33-.6l-14.69-21.07c-1.67-2.42-4.43-3.85-7.37-3.85h-12.21c-11.02,0-19.95-8.93-19.95-19.95v-86.45c0-11.02,8.93-19.95,19.95-19.95h23.89c1.33,0,2.19,1.33,1.71,2.57-.88,2.24-1.36,4.67-1.36,7.23v86.45c0,11.02,8.93,19.95,19.95,19.95h12.21c2.94,0,5.7,1.43,7.37,3.85l4.29,6.15Z"/>
      <circle class="cls-9" cx="774.74" cy="105.71" r="11.91"/>
      <path class="cls-10" d="m818.03,105.71c0,6.58-5.33,11.91-11.91,11.91s-11.91-5.33-11.91-11.91c0-6.58,5.33-11.91,11.91-11.91,6.58,0,11.91,5.33,11.91,11.91Z"/>
      <path class="cls-10" d="m849.42,105.71c0,6.58-5.33,11.91-11.91,11.91-6.58,0-11.91-5.33-11.91-11.91s5.33-11.91,11.91-11.91,11.91,5.33,11.91,11.91Z"/>
    </g>
    <g>
      <g>
        <path class="cls-5" d="m565.68,131.37s21.73-12.72,35.48,2.51c9.47-9.67,19.11-19.41,27.58-27.77,2.76-2.75,16.49-19.54,16.18-29.47-.33-9.92-28.14,2.65-39.24,13.27,0,0-30.15,34.39-40,41.46h0Z"/>
        <path class="cls-11" d="m572.61,127.52s18.26-10.15,31.38,4.67c5.57-5.94,10.43-12.8,15.3-18.82-9.7,6.93-15.6,9.32-15.6,9.32-6.58-4.82-14.14-5.57-21.26-4.46-3.95,4.19-7.5,7.66-9.82,9.29h0Z"/>
        <path class="cls-2" d="m624.01,104.69c4.72,2.78,4.5,1.65,4.72,1.42l-3.59-2.92c-2.81-1.16-8.48-4.77-18.11-16-.08.09-.16.16-.23.26,0,0-.46.67-1.24,1.8,4.33,5.37,11.39,12.97,18.46,15.45h0Z"/>
      </g>
      <path class="cls-3" d="m559.52,117.89c2.92,1.61,6.72,4.3,9.67,8.47-3.7,4.79-13.97,12.74-41.46,13.03-27.47-.29-37.75-8.24-41.46-13.03,2.95-4.17,6.75-6.86,9.67-8.47l9.36.84c9.36,3.93,22.43,2.73,22.43,2.73,0,0,13.08,1.2,22.43-2.73l9.36-.84Z"/>
      <path class="cls-3" d="m549.05,50.18s-11.73,4.87-21.32,2.87c-9.59,2-21.32-2.87-21.32-2.87-7.45-4.14-32.34,1.87-24.05,32.49,8.31,30.64,45.37,29.63,45.37,29.63,0,0,37.06,1.01,45.37-29.63,8.29-30.62-16.6-36.63-24.05-32.49h0Z"/>
      <path class="cls-3" d="m527.73,21.84s8.8.21,19.49,3.08c-2.01,6.38-6.56,17.15-14.47,17.96h-5.01s-5,0-5,0c-7.92-.81-12.48-11.59-14.49-17.96,10.69-2.87,19.49-3.08,19.49-3.08h0Z"/>
      <path class="cls-3" d="m502.33,65.63h0c3.93,0,7.16,3.21,7.16,7.16v12.3c0,3.94-3.23,7.16-7.16,7.16h0c-3.94,0-7.16-3.21-7.16-7.16v-12.3c0-3.94,3.21-7.16,7.16-7.16h0Z"/>
      <path class="cls-3" d="m508.79,69.75c.44.92.7,1.95.7,3.03v12.3c0,3.94-3.23,7.16-7.16,7.16h0c-1.09,0-2.13-.24-3.05-.68-.44-.92-.68-1.95-.68-3.03v-12.3c0-3.94,3.23-7.16,7.16-7.16h0c1.09,0,2.13.24,3.03.68h0Z"/>
      <path class="cls-3" d="m572.61,155.8c-.08.6-.18,1.2-.29,1.82-10.73,4.4-24.34,5.53-24.34,5.53-1.43,22.77-20.25,20.53-20.25,20.53v-1.18c20.61-.57,19.03-21.47,19.03-21.47,14.75-.42,25.85-5.23,25.85-5.23h0Z"/>
      <path class="cls-3" d="m527.73,146.29c-9.05,0-16.39,7.33-16.39,16.39s7.33,16.37,16.39,16.37,16.39-7.33,16.39-16.37-7.33-16.39-16.39-16.39h0Z"/>
      <path class="cls-3" d="m527.73,146.29c-7.92,0-14.52,5.61-16.05,13.1,1.53,7.46,8.13,13.1,16.05,13.1s14.54-5.63,16.07-13.1c-1.53-7.48-8.15-13.1-16.07-13.1h0Z"/>
      <path class="cls-3" d="m553.14,65.63h0c-3.94,0-7.16,3.21-7.16,7.16v12.3c0,3.94,3.21,7.16,7.16,7.16h0c3.93,0,7.16-3.21,7.16-7.16v-12.3c0-3.94-3.23-7.16-7.16-7.16h0Z"/>
      <path class="cls-3" d="m546.67,69.75c-.44.92-.68,1.95-.68,3.03v12.3c0,3.94,3.21,7.16,7.16,7.16h0c1.09,0,2.11-.24,3.03-.68.44-.92.68-1.95.68-3.03v-12.3c0-3.94-3.21-7.16-7.16-7.16h0c-1.09,0-2.11.24-3.03.68h0Z"/>
      <path class="cls-3" d="m544.77,31.34c-2.53,5.45-6.44,10.99-12.02,11.55h-5.01s-5,0-5,0c-5.6-.57-9.51-6.1-12.04-11.55,7.32-1.96,13.74-2.68,17.04-2.94,3.31.26,9.72.97,17.04,2.94h0Z"/>
      <path class="cls-5" d="m462.79,127.84s3.29,15.17,23.04,16.03c-1.72,8.16-5.63,16.36-6.95,23.55-.42,2.35-2.71,15.3-10.45,18.89-7.72,3.57-14.73-14.46-13.31-23.76,0,0,8.16-27.34,7.66-34.71h0Z"/>
      <path class="cls-11" d="m462.79,127.84s3.29,15.17,23.04,16.03c-1.25,5.92-3.65,11.85-5.37,17.4-.54-8.76-2.29-13.26-2.29-13.26-7.87-1.62-13.13-5.65-16.63-10.27.84-4.19,1.4-7.82,1.25-9.9h0Z"/>
      <path class="cls-1" d="m490.15,106.55s-24.31-4.35-28.54,14.46c-4.24,18.81,16.15,26.27,24.96,23.94,0,0,15.97-29.06,15.64-30.31-.32-1.25-12.06-8.08-12.06-8.08h0Z"/>
      <path class="cls-1" d="m574.55,106.55s24.29-4.35,28.53,14.46c4.24,18.81-16.15,26.27-24.94,23.94,0,0-15.98-29.06-15.66-30.31.32-1.25,12.07-8.08,12.07-8.08h0Z"/>
      <path class="cls-5" d="m559.6,109.95s19.03,5.71,18.91,26.19c-.03,3.62-.44,8.37-1.28,13.73-3.88,24.81-17.04,62.59-44.89,62.12-27.83.47-41.01-37.31-44.89-62.12-.84-5.36-1.25-10.11-1.27-13.73-.15-20.48,18.89-26.19,18.89-26.19,8.73,7.29,27.26,5.58,27.26,5.58,0,0,18.53,1.7,27.26-5.58h0Z"/>
      <path class="cls-11" d="m564.13,111.97c2.92,1.61,6.72,4.3,9.67,8.47-3.7,4.79-13.97,12.74-41.46,13.03-27.47-.29-37.75-8.24-41.46-13.03,2.95-4.17,6.75-6.86,9.67-8.47l9.36.84c9.36,3.93,22.43,2.73,22.43,2.73,0,0,13.08,1.2,22.43-2.73l9.36-.84Z"/>
      <path class="cls-5" d="m532.34,15.92s49.67,1.15,56.54,36.64c6.86,35.49-2.86,71.84-56.54,72.42-53.66-.58-63.4-36.93-56.52-72.42,6.86-35.49,56.52-36.64,56.52-36.64h0Z"/>
      <path class="cls-2" d="m532.34,15.92s8.8.21,19.49,3.08c-2.01,6.38-6.56,17.15-14.47,17.96h-5.01s-5,0-5,0c-7.92-.81-12.48-11.59-14.49-17.96,10.69-2.87,19.49-3.08,19.49-3.08h0Z"/>
      <path class="cls-2" d="m479.34,165.7c-.23.78-.39,1.38-.45,1.72l-.05.26c-2.63-1.62-8.97-4.06-23.76-4.75.02-.13.03-.24.05-.37,0,0,.26-.84.67-2.27,6.88.1,17.22,1.04,23.55,5.42h0Z"/>
      <path class="cls-1" d="m476.14,51c-3.46,1.48-9.35,4.64-9.35,7.71,0,0-4.25,30.9,9.4,31.04h0c-3.18-11.34-2.87-24.33-.37-37.19.1-.54.21-1.05.32-1.56h0Z"/>
      <path class="cls-2" d="m466.2,70.76c.23,8.68,2.16,18.91,10,18.99h0c-1.38-4.92-2.11-10.16-2.27-15.56-3.25-.92-5.76-2.14-7.72-3.42h0Z"/>
      <path class="cls-1" d="m478.11,51.28s-.44-26.19,20.46-37.94c0,0,13.01.44,11.73-9.01-1.28-9.44-14.88-1.15-15.32,3.36.36,1.93-33.35,28.56-18.6,49.45l1.72-5.86Z"/>
      <path class="cls-2" d="m487.45,149.87c.1.6.19,1.2.29,1.82,10.73,4.4,24.34,5.53,24.34,5.53,1.43,22.77,20.25,20.53,20.25,20.53v-1.18c-20.61-.57-19.03-21.47-19.03-21.47-14.73-.42-25.85-5.23-25.85-5.23h0Z"/>
      <path class="cls-1" d="m588.54,51c3.46,1.48,9.35,4.64,9.35,7.71,0,0,4.27,30.9-9.38,31.04h-.02c3.18-11.34,2.87-24.33.39-37.19-.1-.54-.21-1.05-.34-1.56h0Z"/>
      <path class="cls-2" d="m598.5,70.76c-.23,8.68-2.17,18.91-10,18.99h-.02c1.38-4.92,2.11-10.16,2.29-15.56,3.23-.92,5.76-2.14,7.72-3.42h0Z"/>
      <path class="cls-1" d="m586.59,51.28s.42-26.19-20.46-37.94c0,0-13.03.44-11.75-9.01,1.3-9.44,14.9-1.15,15.32,3.36-.36,1.93,33.35,28.56,18.61,49.45l-1.72-5.86Z"/>
      <path class="cls-2" d="m577.22,149.87c-.08.6-.18,1.2-.29,1.82-10.73,4.4-24.34,5.53-24.34,5.53-1.43,22.77-20.25,20.53-20.25,20.53v-1.18c20.61-.57,19.03-21.47,19.03-21.47,14.75-.42,25.85-5.23,25.85-5.23h0Z"/>
      <path class="cls-11" d="m576.75,152.7c-4.4,24.75-17.61,59.75-44.41,59.3-26.79.45-40-34.55-44.41-59.3,4.35,10.55,18.53,39.3,44.41,39.55,25.88-.24,40.08-29,44.41-39.55h0Z"/>
      <path class="cls-2" d="m532.34,140.36c-9.05,0-16.39,7.33-16.39,16.39s7.33,16.37,16.39,16.37,16.39-7.33,16.39-16.37-7.33-16.39-16.39-16.39h0Z"/>
      <path class="cls-1" d="m532.34,140.36c-7.92,0-14.52,5.61-16.05,13.1,1.53,7.46,8.13,13.1,16.05,13.1s14.54-5.63,16.07-13.1c-1.53-7.48-8.15-13.1-16.07-13.1h0Z"/>
      <path class="cls-1" d="m549.38,25.41c-2.53,5.45-6.44,10.99-12.02,11.55h-5.01s-5,0-5,0c-5.6-.57-9.51-6.1-12.04-11.55,7.32-1.96,13.74-2.68,17.04-2.94,3.31.26,9.72.97,17.04,2.94h0Z"/>
      <rect class="cls-4" x="485.83" y="57.23" width="93.03" height="31.55" rx="15.78" ry="15.78" transform="translate(1064.69 146.01) rotate(180)"/>
      <path class="cls-8" d="m509.13,76.11h0c5.81,0,10.59.19,10.59.41v.71c0,.23-4.78.41-10.59.41h0c-5.84,0-10.59-.19-10.59-.41v-.71c0-.23,4.76-.41,10.59-.41h0Z"/>
      <g>
        <path class="cls-4" d="m511.92,145.25l-1.11-.16c-.41-.06-.69-.44-.64-.84l.44-3.13c.1-.72-.78-1.15-1.28-.62l-3.4,3.59c-.17.18-.41.26-.65.23l-1.12-.16c-.41-.06-.69-.44-.64-.84l1.24-8.89c.06-.41.44-.69.84-.64l1.13.16c.41.06.69.44.64.84l-.44,3.14c-.1.72.78,1.15,1.29.62l3.41-3.6c.17-.18.41-.26.65-.23l1.1.15c.41.06.69.44.64.84l-1.24,8.89c-.06.41-.44.69-.84.64Z"/>
        <path class="cls-4" d="m500.91,143.72l-.97-.14c-.33-.05-.61-.29-.68-.62l-.33-1.39c-.08-.33-.35-.58-.68-.62l-2.36-.33c-.33-.05-.66.11-.83.41l-.71,1.25c-.17.29-.49.45-.83.41l-.98-.14c-.57-.08-.88-.7-.61-1.21l4.56-8.28c.16-.3.49-.46.83-.42l1.68.23c.34.05.61.3.69.63l2.12,9.22c.13.56-.34,1.08-.91,1Zm-2.47-5.82l-.12-.55c-.17-.73-1.15-.87-1.52-.21l-.27.49c-.28.5.03,1.13.6,1.21l.4.06c.57.08,1.04-.43.91-.99Z"/>
      </g>
      <rect class="cls-6" x="551.57" y="137.09" width="20" height="4.61" rx="2.31" ry="2.31" transform="translate(1134.54 220.04) rotate(174.07)"/>
      <text class="cls-13" transform="translate(570.83 139.02) rotate(174.07) scale(1 -1)"><tspan x="0" y="0">Negeri Agung Bot</tspan></text>
      <path class="cls-8" d="m554.83,76h0c5.81,0,10.59.21,10.59.47v.81c0,.26-4.78.47-10.59.47h0c-5.84,0-10.59-.21-10.59-.47v-.81c0-.26,4.76-.47,10.59-.47h0Z"/>
      <path class="cls-12" d="m550.7,105.58h0c-10.51,8.8-25.79,8.9-36.41.24l-.29-.24"/>
    </g>
  </g>
</svg>